<svg xmlns="http://www.w3.org/2000/svg" width="2211" height="1093" viewBox="0 0 2211 1093">
  <defs>
    <style>
      .cls-1 {
        fill: #9e8d85;
      }

      .cls-1, .cls-2 {
        fill-rule: evenodd;
      }

      .cls-2 {
        fill: #c1d72d;
      }
    </style>
  </defs>
  <path id="Forma_1_copiar_2" data-name="Forma 1 copiar 2" class="cls-1" d="M1828.49,486.805C1373.01,579.127,723.158,584.3,314.8,486.116L375.878,65.263C738.494-9.951,1408.13-33.02,1886.98,64.147ZM424.583,110.511L376.3,441.277c383.427,74.5,981.1,78.672,1403.386,2.562l47-333.316C1378.47,33.385,857.752,40.391,424.583,110.511Z"/>
  <path id="Forma_1" data-name="Forma 1" class="cls-2" d="M1750,416c-278.69,46.487-639.51,62.395-955.38,44.74L814,326c7.132-51.2,47.532-96,105-96h439c51.25,0,39.63,79-13,79H882l-12,79h460c171.02,0,187.97-238,44-238H925c-109.094,0-182,100.5-190,165L714.534,455.47C604.19,447.056,501.044,434.282,411,417l41-280c413.026-64.2,911.76-74.685,1339-1Z"/>
  <path id="performance" class="cls-1" d="M78.14,683.728c-26.281,0-35.563,10.963-39.483,32.889L-0.015,939.532H43.537l10.8-62.123h59.321c67.58,0,88.73-31.428,98.775-93.552,2.052-13.155,3.4-25.215,2.921-36.178-1.7-38.736-21.947-63.951-71.506-63.951H78.14Zm2.607,42.391c1.23-6.213,5.966-9.5,13.1-9.5h37.169c28.909,0,38.089,12.425,38.953,32.159,0.4,9.136-1.014,19.733-3.13,31.427-6.284,36.543-15.58,64.316-58,64.316H60.4Zm325.38,151.29,5.693-32.89H314.58c-27.032,0-35-10.6-35.741-27.407a100.393,100.393,0,0,1,1.652-22.292H396.128c22.527,0,34.061-10.963,37.606-32.889A99.278,99.278,0,0,0,435,739.274c-1.936-44.217-38.946-57.738-87.754-57.738-67.58,0-96.44,18.271-109.975,95.013-2.659,16.444-4.272,31.062-3.712,43.852,1.569,35.812,19.016,57.008,65.947,57.008H406.127ZM286.185,761.931c5.693-32.889,21.573-47.506,59.117-47.506,23.278,0,43.48,6.943,44.36,27.042a80.59,80.59,0,0,1-.351,9.136c-0.511,5.481-3.258,11.328-11.893,11.328H286.185Zm153.36,115.478h43.927l19.244-109.265c6-34.351,21.4-51.527,56.688-51.527h30.4L583.5,683.728H553.834c-57.067,0-83.707,17.541-93.289,73.087Zm209.1,0,27.876-160.792h54.439l6.069-32.889h-54.44c5.366-31.793,28.564-33.62,52.592-33.62a51.933,51.933,0,0,1,7.525.366l5.382-31.428c-3.754,0-7.525-.365-11.279-0.365-52.563,0-89.659,10.232-98.147,65.047H610.881l-6.068,32.889H632.6L604.72,877.409h43.927ZM849.572,681.536c-71.335,0-105.987,14.617-119.361,95.013a181.38,181.38,0,0,0-2.2,35.447C730.2,862.06,763.632,879.6,822.577,879.6c71.334,0,106.362-14.617,119.7-95.744a177.853,177.853,0,0,0,2.219-35.081C942.324,699.077,908.892,681.536,849.572,681.536ZM775.8,780.2c8.433-47.506,26.78-65.778,71.834-65.778,34.916,0,50.414,10.963,51.6,38,0.336,7.674-.75,17.175-2.538,27.773-8.057,47.507-27.124,66.509-72.177,66.509-34.916,0-50.055-11.328-51.239-38.371C772.925,800.3,774.027,791.166,775.8,780.2Zm174.464,97.206H994.19l19.24-109.265c6.01-34.351,21.4-51.527,56.69-51.527h18.4l5.69-32.889h-29.66c-57.06,0-83.7,17.541-93.286,73.087Zm136.277,0h35.92l26.11-149.829c1.18-7.308,5.9-10.963,13.41-10.963h64.57L1198.3,877.409h43.93l28.25-160.792h34.17c23.65,0,34.55,8.771,35.36,27.408a75.669,75.669,0,0,1-1.5,17.175l-20.44,116.209H1362l22.57-127.537c0.92-4.751.99-11.694,0.77-16.81-1.54-35.082-31.07-49.334-70.49-49.334H1146.27c-26.28,0-35.56,10.963-39.48,32.889Zm346.58-193.681-5.7,32.889h97.24c15.4,0,23.19,6.578,23.74,19a39.905,39.905,0,0,1-.74,8.77l-2.46,12.425h-90.11c-37.54,0-53.56,20.1-60.22,56.643-1.18,7.308-.86,14.617-0.59,20.829,1.2,27.408,16.16,43.122,43.56,43.122h96.49c26.28,0,35.55-11.329,39.49-32.89l18.35-103.783a60.471,60.471,0,0,0,.88-14.252c-1.02-23.388-15.76-42.756-46.92-42.756H1433.12ZM1539.5,789.7l-7.46,43.852c-1.18,7.309-5.91,10.963-13.41,10.963h-61.95c-11.64,0-17.14-5.481-17.6-16.079a56.618,56.618,0,0,1,1.32-12.79c3.67-19,10.87-25.946,25.89-25.946h73.21Zm65.16,87.705h43.93l26.1-149.829c1.18-7.308,5.9-10.963,13.41-10.963h40.18c23.65,0,34.58,9.5,35.39,28.139a69.9,69.9,0,0,1-1.53,16.444L1741.7,877.409h43.93l22.57-127.537c0.93-4.385.99-11.694,0.77-16.81-1.54-35.082-31.07-49.334-70.49-49.334H1672.4c-26.28,0-35.57,10.963-39.49,32.889Zm401.33-160.792,5.69-32.889h-83.35c-71.33,0-92.14,30.7-102.19,92.821-2.06,12.79-3.4,25.215-2.92,36.178,1.71,39.1,22.36,64.682,74.92,64.682h84.1l5.69-32.89h-76.96c-31.54,0-41.5-13.155-42.38-33.254-0.4-9.136,1.01-19.734,3.14-31.062,6.29-36.543,15.62-63.586,61.79-63.586h72.47Zm175.99,160.792,5.7-32.89h-97.24c-27.04,0-35.01-10.6-35.74-27.407a100.2,100.2,0,0,1,1.65-22.292h115.63c22.53,0,34.07-10.963,37.61-32.889a98.933,98.933,0,0,0,1.26-22.657c-1.94-44.217-38.95-57.738-87.75-57.738-67.58,0-96.44,18.271-109.98,95.013-2.66,16.444-4.27,31.062-3.71,43.852,1.57,35.812,19.02,57.008,65.95,57.008h106.62ZM2062.04,761.931c5.69-32.889,21.57-47.506,59.12-47.506,23.28,0,43.48,6.943,44.36,27.042a82.975,82.975,0,0,1-.35,9.136c-0.51,5.481-3.26,11.328-11.9,11.328h-91.23Z"/>
  <path id="FITNESS" class="cls-2" d="M791.035,952.293H711.666L707.26,1089.17h33.034l1.924-57.05h42.9l0.821-26.68h-42.9l0.841-26.469h46.334Zm32.664,0-4.192,136.877h33.035l4.191-136.877H823.7Zm151.474,26.678,0.821-26.678H880.751l-0.821,26.678h31.1l-3.371,110.2H940.7l3.371-110.2h31.1Zm52.037,110.2,2.61-89.472,75.04,89.472h28.74l4.2-136.877h-33.04l-2.86,89.067-74.58-89.067H998.58l-4.406,136.877h33.036Zm220.84-136.877h-78.94l-4.19,136.877h79.8l0.82-26.67h-47.62l0.88-30.38h45.05l0.82-26.68h-45.05l0.85-26.469h46.76Zm116,10.466c-16.12-11.287-30.5-13.544-42.73-13.544s-26.82,2.052-37.34,12.928c-6.22,6.567-11.23,16.828-9.84,30.988a34.284,34.284,0,0,0,11.71,23.189c7.53,6.77,18.91,11.29,21.35,12.11l8.68,3.28c7.79,2.88,10.8,5.13,11.98,6.16a13.98,13.98,0,0,1,5,9.44c0.5,5.13-1.19,9.85-4.77,12.72-3.79,2.88-10.51,4.31-15.45,4.31a36.091,36.091,0,0,1-17.17-4.51,57.5,57.5,0,0,1-13.08-10.88l-16.24,22.57a89.843,89.843,0,0,0,20.52,14.58c10.14,4.92,18.62,6.15,29.13,6.15,14.59,0,29.15-2.46,39.67-13.34,7.58-8,12.34-20.72,10.94-35.09-0.87-8.82-3.63-15.19-9.39-21.34-6.22-6.57-12.99-10.06-20.16-13.14l-8.73-3.69c-7.38-3.08-11.4-4.72-14.64-7.183-3.23-2.257-5.44-5.13-5.84-9.235a11.544,11.544,0,0,1,3.97-9.85c3.37-2.873,9.1-3.489,13.17-3.489,6.44,0,15.22,2.052,24.99,9.851Zm113.47,0c-16.12-11.287-30.5-13.544-42.72-13.544s-26.83,2.052-37.35,12.928c-6.22,6.567-11.22,16.828-9.84,30.988a34.326,34.326,0,0,0,11.71,23.189c7.53,6.77,18.91,11.29,21.35,12.11l8.69,3.28c7.79,2.88,10.8,5.13,11.97,6.16a13.941,13.941,0,0,1,5,9.44c0.5,5.13-1.18,9.85-4.76,12.72-3.8,2.88-10.52,4.31-15.46,4.31a36.122,36.122,0,0,1-17.17-4.51,57.5,57.5,0,0,1-13.08-10.88l-16.23,22.57a89.781,89.781,0,0,0,20.51,14.58c10.14,4.92,18.62,6.15,29.14,6.15,14.58,0,29.14-2.46,39.66-13.34,7.58-8,12.34-20.72,10.94-35.09-0.86-8.82-3.63-15.19-9.38-21.34-6.22-6.57-13-10.06-20.17-13.14l-8.72-3.69c-7.38-3.08-11.41-4.72-14.65-7.183-3.22-2.257-5.44-5.13-5.84-9.235a11.544,11.544,0,0,1,3.97-9.85c3.37-2.873,9.1-3.489,13.17-3.489,6.44,0,15.22,2.052,24.99,9.851Z"/>
</svg>
